Coordinates
version=1
nRows=26
nColumns=24
inDegrees=yes

Units are S.I. units (second, meters, Newtons, ...)
Angles are in degrees.

endheader
time	pelvis_tilt	pelvis_list	pelvis_rotation	pelvis_tx	pelvis_ty	pelvis_tz	hip_flexion_r	hip_adduction_r	hip_rotation_r	knee_angle_r	ankle_angle_r	subtalar_angle_r	mtp_angle_r	hip_flexion_l	hip_adduction_l	hip_rotation_l	knee_angle_l	ankle_angle_l	subtalar_angle_l	mtp_angle_l	lumbar_extension	lumbar_bending	lumbar_rotation
      1.81683333	      1.15122382	      5.88082412	     -6.76787967	      1.35938255	      1.01910477	      0.27827407	     14.40910930	     -5.82775931	      2.40837802	    -61.70211863	      2.10534018	    -14.75789275	      6.43687708	      5.05099390	     10.39648344	     -1.33841416	     -8.90691776	     -0.70734016	    -15.23055732	      7.03159476	     -2.74648692	     -7.02315906	      7.39271294
      1.82100000	      1.12525020	      5.77950305	     -6.53216598	      1.36380849	      1.01959821	      0.27801591	     14.89610354	     -5.66994665	      2.18854738	    -61.22711792	      2.24296966	    -14.74107330	      6.40005188	      4.65202854	     10.33357813	     -1.10582427	     -8.67404342	     -0.60113403	    -15.12763829	      7.02086957	     -2.78739772	     -6.90397736	      7.25170253
      1.82516667	      1.11982147	      5.68518239	     -6.30268106	      1.36821690	      1.02007657	      0.27778300	     15.35739881	     -5.52336921	      1.98010179	    -60.73152501	      2.34801733	    -14.71726317	      6.31278914	      4.22158968	     10.27828487	     -0.84205839	     -8.41995291	     -0.48519497	    -15.07497213	      6.99018881	     -2.85867396	     -6.80924537	      6.89686165
      1.82933333	      1.07705463	      5.59831576	     -6.06679078	      1.37263278	      1.02046294	      0.27753686	     15.85411020	     -5.38935795	      1.75957766	    -60.22162630	      2.49217481	    -14.70164254	      6.28188578	      3.84734098	     10.22005620	     -0.62077983	     -8.18702470	     -0.42138076	    -14.95396503	      6.98181241	     -2.87450415	     -6.70020754	      6.81374525
      1.83350000	      1.04953531	      5.50458299	     -5.82528276	      1.37704126	      1.02086664	      0.27728938	     16.31953793	     -5.25605593	      1.53140759	    -59.66913903	      2.60697925	    -14.66244363	      6.24508251	      3.45160355	     10.15435177	     -0.37999315	     -7.94945865	     -0.32334014	    -14.85286083	      6.97278428	     -2.91256827	     -6.59031850	      6.64897614
      1.83766667	      1.02472565	      5.42171322	     -5.59230064	      1.38144706	      1.02123597	      0.27705481	     16.77783014	     -5.13705631	      1.31446677	    -59.09728692	      2.69349090	    -14.61821017	      6.16021767	      3.05077783	     10.10019756	     -0.11396538	     -7.70733846	     -0.21245665	    -14.82164910	      6.94509214	     -2.94862869	     -6.50232456	      6.28179459
      1.84183333	      0.98075947	      5.34035400	     -5.35232421	      1.38583929	      1.02155509	      0.27682535	     17.25078751	     -5.02255388	      1.09160077	    -58.50523819	      2.80566252	    -14.57934846	      6.12840453	      2.68168105	     10.03714838	      0.10142284	     -7.47882430	     -0.15276428	    -14.69826224	      6.93696650	     -2.96780336	     -6.40723714	      6.19057961
      1.84600000	      0.95883675	      5.25207497	     -5.10377905	      1.39019606	      1.02187503	      0.27660732	     17.68712171	     -4.90583831	      0.86478621	    -57.87993337	      2.89872584	    -14.51547008	      6.08145207	      2.29760718	      9.96524363	      0.33684682	     -7.26706487	     -0.04719429	    -14.62190823	      6.92590041	     -3.00989668	     -6.32752192	      5.97685900
      1.85016667	      0.92075561	      5.19172112	     -4.86757200	      1.39458684	      1.02211363	      0.27638033	     18.14582517	     -4.82542229	      0.64993073	    -57.25887741	      2.98682058	    -14.45297682	      6.00128813	      1.91565516	      9.92379600	      0.60226588	     -7.01961598	      0.04246305	    -14.57707091	      6.90537423	     -3.03057832	     -6.24514254	      5.65044092
      1.85433333	      0.89110105	      5.12594572	     -4.62093343	      1.39895365	      1.02235141	      0.27616703	     18.57798992	     -4.74496236	      0.42368745	    -56.60159320	      3.06986347	    -14.38623301	      5.92907591	      1.53411977	      9.86954444	      0.84120304	     -6.78481801	      0.11880068	    -14.49399305	      6.88652322	     -3.06650340	     -6.17397681	      5.43733999
      1.85850000	      0.85309634	      5.05738619	     -4.36519740	      1.40330801	      1.02255315	      0.27594308	     19.00735610	     -4.66722868	      0.19045816	    -55.91870761	      3.14779049	    -14.32321700	      5.83792617	      1.17133341	      9.80963144	      1.09840801	     -6.57400340	      0.17929292	    -14.42700262	      6.86256653	     -3.09233752	     -6.09925076	      5.20905835
      1.86266667	      0.81231362	      4.98777691	     -4.13087139	      1.40767245	      1.02272882	      0.27576006	     19.43345559	     -4.58484162	     -0.02080476	    -55.21364264	      3.20384837	    -14.24824802	      5.80900613	      0.81433652	      9.74195124	      1.29714687	     -6.36586591	      0.27325114	    -14.31391941	      6.85832822	     -3.10758502	     -6.02440606	      5.12749560
      1.86683333	      0.78323113	      4.93310809	     -3.88787015	      1.41203396	      1.02287313	      0.27556375	     19.84200688	     -4.52978955	     -0.24051865	    -54.49731175	      3.25859977	    -14.15935529	      5.75633834	      0.43472660	      9.69075139	      1.54202797	     -6.13606861	      0.37428132	    -14.24839681	      6.84955092	     -3.13886585	     -5.95771850	      4.85258902
      1.87100000	      0.75558554	      4.88011717	     -3.63700233	      1.41637133	      1.02300540	      0.27538074	     20.23670924	     -4.47885559	     -0.46049607	    -53.75848424	      3.29074063	    -14.08962245	      5.70487770	      0.06562949	      9.63665718	      1.79454076	     -5.92844502	      0.45217275	    -14.17852915	      6.83853271	     -3.17624078	     -5.90104948	      4.63654193
      1.87516667	      0.69540993	      4.83720851	     -3.40903938	      1.42074499	      1.02304652	      0.27524317	     20.66302617	     -4.43371112	     -0.65814458	    -53.00454485	      3.33280141	    -14.00056792	      5.68358452	     -0.26979577	      9.58511198	      1.98296438	     -5.71331325	      0.51425069	    -14.06298298	      6.83646116	     -3.16972237	     -5.86000218	      4.55280482
      1.87933333	      0.69329265	      4.78378767	     -3.17336374	      1.42511313	      1.02315436	      0.27508376	     21.00941855	     -4.39093448	     -0.87047895	    -52.22168768	      3.35498706	    -13.90347173	      5.64389196	     -0.67710566	      9.52572195	      2.21784787	     -5.48142291	      0.61785153	    -13.98924087	      6.83234719	     -3.23104191	     -5.79826267	      4.28027837
      1.88350000	      0.63904606	      4.75395241	     -2.92958798	      1.42946683	      1.02314175	      0.27494437	     21.41224452	     -4.37360355	     -1.08033214	    -51.43757847	      3.37418954	    -13.80303688	      5.60634846	     -1.01443024	      9.48310207	      2.44643363	     -5.27558241	      0.69930132	    -13.90487972	      6.82920835	     -3.23678816	     -5.77041391	      4.08996780
      1.88766667	      0.60989271	      4.71821130	     -2.70521526	      1.43383592	      1.02315017	      0.27483897	     21.77617379	     -4.34923806	     -1.27658574	    -50.62671470	      3.37735822	    -13.70740775	      5.59236984	     -1.38137671	      9.43077960	      2.63294881	     -5.06096325	      0.76980814	    -13.78558138	      6.83061670	     -3.25667846	     -5.73648670	      4.01039962
      1.89183333	      0.57591428	      4.68419829	     -2.47480657	      1.43821844	      1.02311562	      0.27472746	     22.13154246	     -4.33296596	     -1.47913466	    -49.79655085	      3.38004681	    -13.59372793	      5.57952687	     -1.74190957	      9.37776653	      2.82861079	     -4.85071515	      0.86596051	    -13.67823929	      6.83375245	     -3.28001962	     -5.70104904	      3.87890619
      1.89600000	      0.55510068	      4.65752323	     -2.25343759	      1.44257440	      1.02306756	      0.27464805	     22.46893451	     -4.32279785	     -1.66679876	    -48.95368574	      3.36422933	    -13.48171785	      5.56863879	     -2.11904832	      9.32892977	      3.02605026	     -4.63307145	      0.96017064	    -13.56332571	      6.83619591	     -3.31898398	     -5.67763488	      3.72023625
      1.90016667	      0.53620027	      4.64163018	     -2.04174769	      1.44697502	      1.02299669	      0.27457921	     22.79312090	     -4.32901328	     -1.85501701	    -48.09309912	      3.34576070	    -13.35643603	      5.56040694	     -2.50166215	      9.29004948	      3.20257209	     -4.40996328	      1.05650601	    -13.45265938	      6.83941270	     -3.35442910	     -5.66439499	      3.55731160
      1.90433333	      0.52682711	      4.63204386	     -1.82453268	      1.45137040	      1.02289810	      0.27452136	     23.10014091	     -4.34361606	     -2.03833005	    -47.22922788	      3.33216131	    -13.22994047	      5.55201232	     -2.89658271	      9.25391471	      3.39750561	     -4.18051075	      1.17242093	    -13.34107369	      6.84488833	     -3.40595603	     -5.65759265	      3.30520008
      1.90850000	      0.48865389	      4.62073483	     -1.62109193	      1.45575865	      1.02273123	      0.27449239	     23.42991234	     -4.35285347	     -2.21266694	    -46.34075791	      3.30331105	    -13.09359927	      5.55021258	     -3.25049589	      9.21195507	      3.55328677	     -3.96923212	      1.25816756	    -13.21358006	      6.85011235	     -3.41514794	     -5.65174391	      3.24524216
      1.91266667	      0.45994480	      4.61494676	     -1.40371433	      1.46017193	      1.02256180	      0.27445439	     23.73301390	     -4.37632353	     -2.39828326	    -45.43326121	      3.27037653	    -12.94498223	      5.55173614	     -3.61347796	      9.17277527	      3.73035048	     -3.76237787	      1.36938440	    -13.08330086	      6.85712130	     -3.43822356	     -5.65235789	      3.12632754
      1.91683333	      0.48448540	      4.60828522	     -1.20383532	      1.46458336	      1.02242776	      0.27444571	     23.97065875	     -4.39770424	     -2.57171896	    -44.51793924	      3.24463922	    -12.79334803	      5.56292803	     -4.04290526	      9.13104341	      3.88761236	     -3.53468484	      1.49272558	    -12.93968976	      6.86735323	     -3.53503128	     -5.65258321	      2.90791470
      1.92100000	      0.44247026	      4.61577430	     -0.99987514	      1.46900990	      1.02216867	      0.27444457	     24.27474751	     -4.43541408	     -2.74674246	    -43.59029023	      3.20532972	    -12.62502834	      5.57062153	     -4.39120248	      9.10093205	      4.04041869	     -3.33043637	      1.60062082	    -12.80463418	      6.87448321	     -3.53795159	     -5.66697286	      2.84840882
